<?xml version="1.0" encoding="utf-8"?>
<!-- Generator: Adobe Illustrator 16.0.4, SVG Export Plug-In . SVG Version: 6.00 Build 0)  -->
<!DOCTYPE svg PUBLIC "-//W3C//DTD SVG 1.1//EN" "http://www.w3.org/Graphics/SVG/1.1/DTD/svg11.dtd">
<svg version="1.1" id="Layer_1" xmlns="http://www.w3.org/2000/svg" xmlns:xlink="http://www.w3.org/1999/xlink" x="0px" y="0px"
	 width="1814.174px" height="1360.629px" viewBox="0 0 1814.174 1360.629" enable-background="new 0 0 1814.174 1360.629"
	 xml:space="preserve">
<g id="Background">
</g>
<g id="Guides">
</g>
<g id="Foreground">
	<g>
		<path fill="none" stroke="#000000" stroke-width="4" stroke-miterlimit="3.8637" d="M226.772,680.311
			C226.772,304.583,531.354,0,907.087,0c375.729,0,680.312,304.583,680.312,680.311c0,375.731-304.582,680.315-680.312,680.315
			C531.355,1360.628,226.772,1056.044,226.772,680.311z"/>
		<path fill="none" stroke="#000000" stroke-width="4" stroke-miterlimit="3.8637" d="M907.088,680.311"/>
	</g>
	<line fill="none" stroke="#000000" stroke-width="4" stroke-miterlimit="3.8637" x1="0" y1="680.311" x2="1814.173" y2="680.311"/>
	<line fill="none" stroke="#000000" stroke-width="4" stroke-miterlimit="3.8637" x1="0" y1="453.544" x2="1814.173" y2="453.544"/>
	<line fill="none" stroke="#000000" stroke-width="4" stroke-miterlimit="3.8637" x1="0" y1="226.771" x2="1814.173" y2="226.771"/>
	
		<line fill="none" stroke="#000000" stroke-width="4" stroke-miterlimit="3.8637" x1="0" y1="1133.854" x2="1814.173" y2="1133.854"/>
	<line fill="none" stroke="#000000" stroke-width="4" stroke-miterlimit="3.8637" x1="0" y1="907.08" x2="1814.173" y2="907.08"/>
	<line fill="none" stroke="#000000" stroke-width="4" stroke-miterlimit="3.8637" x1="907.087" y1="0" x2="907.087" y2="1360.628"/>
	<line fill="none" stroke="#000000" stroke-width="4" stroke-miterlimit="3.8637" x1="226.772" y1="0" x2="226.772" y2="1360.628"/>
	<line fill="none" stroke="#000000" stroke-width="4" stroke-miterlimit="3.8637" x1="453.543" y1="0" x2="453.543" y2="1360.628"/>
	<line fill="none" stroke="#000000" stroke-width="4" stroke-miterlimit="3.8637" x1="680.315" y1="0" x2="680.315" y2="1360.628"/>
	
		<line fill="none" stroke="#000000" stroke-width="4" stroke-miterlimit="3.8637" x1="1133.857" y1="0" x2="1133.857" y2="1360.628"/>
	<g>
		<path fill="none" stroke="#000000" stroke-width="4" stroke-miterlimit="3.8637" d="M453.543,680.311
			c0-250.485,203.056-453.54,453.543-453.54c250.484,0,453.543,203.054,453.543,453.54c0,250.488-203.059,453.542-453.543,453.542
			C656.598,1133.854,453.543,930.8,453.543,680.311z"/>
		<path fill="none" stroke="#000000" stroke-width="4" stroke-miterlimit="3.8637" d="M907.087,680.311"/>
	</g>
	
		<line fill="none" stroke="#000000" stroke-width="4" stroke-miterlimit="3.8637" x1="1360.631" y1="0" x2="1360.631" y2="1360.628"/>
	
		<line fill="none" stroke="#000000" stroke-width="4" stroke-miterlimit="3.8637" x1="1587.399" y1="0" x2="1587.399" y2="1360.628"/>
	<g>
		<circle fill="none" stroke="#000000" stroke-width="4" stroke-miterlimit="3.8637" cx="907.088" cy="680.314" r="226.77"/>
		<path fill="none" stroke="#000000" stroke-width="4" stroke-miterlimit="3.8637" d="M907.088,680.311"/>
	</g>
	<g>
		<path fill="none" stroke="#000000" stroke-width="4" stroke-miterlimit="3.8637" d="M0,680.311C0,304.583,406.11,0,907.087,0
			c500.976,0,907.085,304.583,907.085,680.311c0,375.731-406.109,680.315-907.086,680.315C406.11,1360.628,0,1056.044,0,680.311z"/>
		<path fill="none" stroke="#000000" stroke-width="4" stroke-miterlimit="3.8637" d="M907.087,680.311"/>
	</g>
	<line fill="none" stroke="#000000" stroke-width="4" stroke-miterlimit="3.8637" x1="0" y1="0" x2="0" y2="1360.628"/>
	
		<line fill="none" stroke="#000000" stroke-width="4" stroke-miterlimit="3.8637" x1="1814.173" y1="0" x2="1814.173" y2="1360.628"/>
	<line fill="none" stroke="#000000" stroke-width="4" stroke-miterlimit="3.8637" x1="0" y1="0" x2="1814.173" y2="0"/>
	
		<line fill="none" stroke="#000000" stroke-width="4" stroke-miterlimit="3.8637" x1="0" y1="1360.628" x2="1814.173" y2="1360.628"/>
</g>
</svg>
