<?xml version="1.0" encoding="utf-8"?>
<!-- Generator: Adobe Illustrator 16.0.4, SVG Export Plug-In . SVG Version: 6.00 Build 0)  -->
<!DOCTYPE svg PUBLIC "-//W3C//DTD SVG 1.1//EN" "http://www.w3.org/Graphics/SVG/1.1/DTD/svg11.dtd">
<svg version="1.1" id="Layer_1" xmlns="http://www.w3.org/2000/svg" xmlns:xlink="http://www.w3.org/1999/xlink" x="0px" y="0px"
	 width="1360.629px" height="1360.629px" viewBox="0 0 1360.629 1360.629" enable-background="new 0 0 1360.629 1360.629"
	 xml:space="preserve">
<g id="Background">
</g>
<g id="Guides">
</g>
<g id="Foreground">
	<g>
		<path fill="none" stroke="#000000" stroke-width="4" stroke-miterlimit="3.8637" d="M0,680.316C0,304.583,304.583,0,680.314,0
			c375.732,0,680.315,304.583,680.315,680.315c0,375.731-304.583,680.315-680.315,680.315C304.583,1360.631,0,1056.049,0,680.316z"
			/>
		<path fill="none" stroke="#000000" stroke-width="4" stroke-miterlimit="3.8637" d="M680.314,680.316"/>
	</g>
	<line fill="none" stroke="#000000" stroke-width="4" stroke-miterlimit="3.8637" x1="0" y1="680.316" x2="1360.631" y2="680.316"/>
	<line fill="none" stroke="#000000" stroke-width="4" stroke-miterlimit="3.8637" x1="0" y1="453.545" x2="1360.631" y2="453.545"/>
	<line fill="none" stroke="#000000" stroke-width="4" stroke-miterlimit="3.8637" x1="0" y1="226.771" x2="1360.631" y2="226.771"/>
	
		<line fill="none" stroke="#000000" stroke-width="4" stroke-miterlimit="3.8637" x1="0" y1="1133.859" x2="1360.631" y2="1133.859"/>
	<line fill="none" stroke="#000000" stroke-width="4" stroke-miterlimit="3.8637" x1="0" y1="907.088" x2="1360.631" y2="907.088"/>
	<line fill="none" stroke="#000000" stroke-width="4" stroke-miterlimit="3.8637" x1="907.087" y1="0" x2="907.087" y2="1360.631"/>
	<line fill="none" stroke="#000000" stroke-width="4" stroke-miterlimit="3.8637" x1="226.772" y1="0" x2="226.772" y2="1360.631"/>
	<line fill="none" stroke="#000000" stroke-width="4" stroke-miterlimit="3.8637" x1="453.544" y1="0" x2="453.544" y2="1360.631"/>
	<line fill="none" stroke="#000000" stroke-width="4" stroke-miterlimit="3.8637" x1="680.314" y1="0" x2="680.314" y2="1360.631"/>
	
		<line fill="none" stroke="#000000" stroke-width="4" stroke-miterlimit="3.8637" x1="1133.857" y1="0" x2="1133.857" y2="1360.631"/>
	<g>
		<path fill="none" stroke="#000000" stroke-width="4" stroke-miterlimit="3.8637" d="M226.772,680.316
			c0-250.488,203.056-453.543,453.542-453.543c250.488,0,453.543,203.055,453.543,453.543
			c0,250.487-203.055,453.543-453.543,453.543C429.827,1133.859,226.772,930.804,226.772,680.316z"/>
		<path fill="none" stroke="#000000" stroke-width="4" stroke-miterlimit="3.8637" d="M680.314,680.316"/>
	</g>
	<g>
		<circle fill="none" stroke="#000000" stroke-width="4" stroke-miterlimit="3.8637" cx="680.314" cy="680.317" r="226.771"/>
		<path fill="none" stroke="#000000" stroke-width="4" stroke-miterlimit="3.8637" d="M680.314,680.316"/>
	</g>
	<line fill="none" stroke="#000000" stroke-width="4" stroke-miterlimit="3.8637" x1="0" y1="0" x2="1360.631" y2="0"/>
	
		<line fill="none" stroke="#000000" stroke-width="4" stroke-miterlimit="3.8637" x1="0" y1="1360.631" x2="1360.631" y2="1360.631"/>
	<line fill="none" stroke="#000000" stroke-width="4" stroke-miterlimit="3.8637" x1="0" y1="0" x2="0" y2="1360.631"/>
	
		<line fill="none" stroke="#000000" stroke-width="4" stroke-miterlimit="3.8637" x1="1360.631" y1="0" x2="1360.631" y2="1360.631"/>
</g>
</svg>
