<?xml version="1.0" encoding="utf-8"?>
<!-- Generator: Adobe Illustrator 16.0.4, SVG Export Plug-In . SVG Version: 6.00 Build 0)  -->
<!DOCTYPE svg PUBLIC "-//W3C//DTD SVG 1.1//EN" "http://www.w3.org/Graphics/SVG/1.1/DTD/svg11.dtd">
<svg version="1.1" id="Layer_1" xmlns="http://www.w3.org/2000/svg" xmlns:xlink="http://www.w3.org/1999/xlink" x="0px" y="0px"
	 width="2267.717px" height="1360.629px" viewBox="0 0 2267.717 1360.629" enable-background="new 0 0 2267.717 1360.629"
	 xml:space="preserve">
<g id="Background">
</g>
<g id="Guides">
</g>
<g>
	<g>
		<path fill="none" stroke="#000000" stroke-width="4" stroke-miterlimit="3.8637" d="M453.544,680.313
			C453.544,304.584,758.127,0,1133.862,0c375.731,0,680.312,304.583,680.312,680.312c0,375.732-304.582,680.317-680.312,680.317
			C758.128,1360.631,453.544,1056.047,453.544,680.313z"/>
		<path fill="none" stroke="#000000" stroke-width="4" stroke-miterlimit="3.8637" d="M1133.863,680.313"/>
	</g>
	<g>
		<path fill="none" stroke="#000000" stroke-width="4" stroke-miterlimit="3.8637" d="M680.317,680.314
			c0-250.486,203.056-453.542,453.544-453.542c250.485,0,453.543,203.056,453.543,453.542
			c0,250.489-203.058,453.545-453.543,453.545C883.37,1133.859,680.317,930.804,680.317,680.314z"/>
		<path fill="none" stroke="#000000" stroke-width="4" stroke-miterlimit="3.8637" d="M1133.861,680.314"/>
	</g>
	<g>
		<circle fill="none" stroke="#000000" stroke-width="4" stroke-miterlimit="3.8637" cx="1133.862" cy="680.315" r="226.771"/>
		<path fill="none" stroke="#000000" stroke-width="4" stroke-miterlimit="3.8637" d="M1133.862,680.312"/>
	</g>
	<g>
		<path fill="none" stroke="#000000" stroke-width="4" stroke-miterlimit="3.8637" d="M226.773,680.313
			C226.773,304.584,632.882,0,1133.861,0c500.976,0,907.086,304.583,907.086,680.312c0,375.732-406.11,680.317-907.087,680.317
			C632.882,1360.631,226.773,1056.047,226.773,680.313z"/>
		<path fill="none" stroke="#000000" stroke-width="4" stroke-miterlimit="3.8637" d="M1133.861,680.313"/>
	</g>
	<g>
		
			<line fill="none" stroke="#000000" stroke-width="4" stroke-miterlimit="3.8637" x1="0" y1="680.312" x2="2267.717" y2="680.312"/>
		
			<line fill="none" stroke="#000000" stroke-width="4" stroke-miterlimit="3.8637" x1="0" y1="453.545" x2="2267.717" y2="453.545"/>
		
			<line fill="none" stroke="#000000" stroke-width="4" stroke-miterlimit="3.8637" x1="0" y1="226.771" x2="2267.717" y2="226.771"/>
		
			<line fill="none" stroke="#000000" stroke-width="4" stroke-miterlimit="3.8637" x1="0" y1="1133.855" x2="2267.717" y2="1133.855"/>
		
			<line fill="none" stroke="#000000" stroke-width="4" stroke-miterlimit="3.8637" x1="0" y1="907.083" x2="2267.717" y2="907.083"/>
		
			<line fill="none" stroke="#000000" stroke-width="4" stroke-miterlimit="3.8637" x1="1133.861" y1="0" x2="1133.861" y2="1360.629"/>
		
			<line fill="none" stroke="#000000" stroke-width="4" stroke-miterlimit="3.8637" x1="453.544" y1="0" x2="453.544" y2="1360.629"/>
		
			<line fill="none" stroke="#000000" stroke-width="4" stroke-miterlimit="3.8637" x1="680.317" y1="0" x2="680.317" y2="1360.629"/>
		
			<line fill="none" stroke="#000000" stroke-width="4" stroke-miterlimit="3.8637" x1="907.087" y1="0" x2="907.087" y2="1360.629"/>
		
			<line fill="none" stroke="#000000" stroke-width="4" stroke-miterlimit="3.8637" x1="1360.63" y1="0" x2="1360.63" y2="1360.629"/>
		
			<line fill="none" stroke="#000000" stroke-width="4" stroke-miterlimit="3.8637" x1="1587.405" y1="0" x2="1587.405" y2="1360.629"/>
		
			<line fill="none" stroke="#000000" stroke-width="4" stroke-miterlimit="3.8637" x1="1814.173" y1="0" x2="1814.173" y2="1360.629"/>
		
			<line fill="none" stroke="#000000" stroke-width="4" stroke-miterlimit="3.8637" x1="226.773" y1="0" x2="226.773" y2="1360.629"/>
		
			<line fill="none" stroke="#000000" stroke-width="4" stroke-miterlimit="3.8637" x1="2040.948" y1="0" x2="2040.948" y2="1360.629"/>
		<line fill="none" stroke="#000000" stroke-width="4" stroke-miterlimit="3.8637" x1="0" y1="0" x2="2267.717" y2="0"/>
		
			<line fill="none" stroke="#000000" stroke-width="4" stroke-miterlimit="3.8637" x1="0" y1="1360.63" x2="2267.717" y2="1360.63"/>
	</g>
	<line fill="none" stroke="#000000" stroke-width="4" stroke-miterlimit="3.8637" x1="0" y1="0" x2="0" y2="1360.629"/>
	
		<line fill="none" stroke="#000000" stroke-width="4" stroke-miterlimit="3.8637" x1="2267.717" y1="0" x2="2267.717" y2="1360.629"/>
	<g>
		<path fill="none" stroke="#000000" stroke-width="4" stroke-miterlimit="3.8637" d="M0,680.313C0,304.584,507.639,0,1133.861,0
			c626.22,0,1133.856,304.583,1133.856,680.312c0,375.732-507.638,680.317-1133.857,680.317C507.639,1360.631,0,1056.047,0,680.313z
			"/>
		<path fill="none" stroke="#000000" stroke-width="4" stroke-miterlimit="3.8637" d="M1133.861,680.313"/>
	</g>
</g>
</svg>
