<?xml version="1.0" encoding="utf-8"?>
<!-- Generator: Adobe Illustrator 14.0.0, SVG Export Plug-In . SVG Version: 6.00 Build 43363)  -->
<!DOCTYPE svg PUBLIC "-//W3C//DTD SVG 1.0//EN" "http://www.w3.org/TR/2001/REC-SVG-20010904/DTD/svg10.dtd">
<svg version="1.0" id="Layer_1" xmlns="http://www.w3.org/2000/svg" xmlns:xlink="http://www.w3.org/1999/xlink" x="0px" y="0px"
	 width="283.465px" height="283.465px" viewBox="0 0 283.465 283.465" enable-background="new 0 0 283.465 283.465"
	 xml:space="preserve">
<circle cx="141.733" cy="141.732" r="141.732"/>
<path fill="#FFFFFF" d="M131.477,57.588c-14.201,2.002-27.159,6.544-38.998,14.579c-71.433,48.478-27.848,166.034,59.643,153.704
	c14.201-2.003,27.159-6.544,38.997-14.578C262.424,162.901,218.647,45.291,131.477,57.588z"/>
<path d="M116.818,79.858c-20.408,2.351-15.988,32.465,4.449,29.433C139.96,106.521,135.667,77.685,116.818,79.858z"/>
<path d="M159.026,81.108c-18.412,5.763-8.8,34.228,9.895,28.122C187.534,103.096,177.724,75.318,159.026,81.108z"/>
<path d="M112.233,131.041c-27.292,5.849-34.836,40.279-13.646,57.271c15.03,12.043,27.694,3.531,44.349,4.387
	c9.701,0.498,18.701,4.361,28.428,2.018c27.539-6.764,32.797-41.473,11.367-57.853c-14.328-10.919-31.383-3.462-47.756-4.154
	C127.211,132.316,120.122,129.343,112.233,131.041z"/>
	<g id="bits">
		<path id="bit1" fill="#FFFFFF" d="M160.23,1.233l-3.7,28.12c-10.07-1.33-20-1.29-29.6-0.04l-3.69-28.07l-0.01-0.05
			C135.241-0.377,147.65-0.427,160.23,1.233z"/>
		<path id="bit2" fill="#FFFFFF" d="M195.98,10.773l-0.02,0.05l-10.84,26.161c-8.95-3.7-18.53-6.301-28.59-7.631l3.7-28.12
			C172.811,2.893,184.791,6.143,195.98,10.773z"/>
		<path id="bit3" fill="#FFFFFF" d="M228.021,29.243L228,29.272l-17.24,22.49c-7.77-5.97-16.37-10.96-25.64-14.779l10.84-26.161l0.02-0.05
			C207.57,15.543,218.311,21.793,228.021,29.243z"/>
		<path id="bit4" fill="#FFFFFF" d="M254.19,55.443l-0.04,0.029l-22.46,17.23c-6.01-7.84-13.04-14.89-20.93-20.94L228,29.272l0.02-0.029
			C237.88,36.823,246.67,45.643,254.19,55.443z"/>
		<path id="bit5" fill="#FFFFFF" d="M272.701,87.493l-0.021,0.01L246.5,98.344c-3.8-9.19-8.79-17.811-14.81-25.641l22.46-17.23l0.04-0.029
			C261.701,65.233,267.951,76.014,272.701,87.493z"/>
		<path id="bit6" fill="#FFFFFF" d="M282.27,123.224l-0.05,0.01l-28.07,3.7c-1.29-9.95-3.89-19.55-7.65-28.59l26.18-10.841l0.021-0.01
			C277.401,98.804,280.651,110.794,282.27,123.224z"/>
		<path id="bit7" fill="#FFFFFF" d="M282.27,123.224c1.57,12.01,1.62,24.43-0.039,37.01l-28.121-3.71c1.32-10.06,1.29-19.989,0.04-29.59
			l28.07-3.7L282.27,123.224z"/>
		<path id="bit8" fill="#FFFFFF" d="M254.11,156.523l28.121,3.71c-1.66,12.581-4.91,24.551-9.54,35.741l-0.051-0.021l-26.149-10.83h-0.01
			C250.181,176.174,252.78,166.594,254.11,156.523z"/>
		<path id="bit9" fill="#FFFFFF" d="M272.64,195.954l0.051,0.021c-4.771,11.59-11.03,22.34-18.48,32.05l-0.02-0.021l-22.49-17.25
			c5.97-7.76,10.96-16.359,14.78-25.63h0.01L272.64,195.954z"/>
		<path id="bit10" fill="#FFFFFF" d="M254.19,228.004l0.02,0.021c-7.58,9.86-16.4,18.65-26.2,26.16l-0.02-0.03l-17.23-22.46
			c7.84-6.02,14.89-13.05,20.94-20.94L254.19,228.004z"/>
		<path id="bit11" fill="#FFFFFF" d="M227.991,254.154l0.02,0.03c-9.79,7.521-20.56,13.76-32.04,18.521l-0.01-0.021l-10.84-26.18
			c9.19-3.811,17.81-8.801,25.64-14.811L227.991,254.154z"/>
		<path id="bit12" fill="#FFFFFF" d="M195.96,272.685l0.01,0.021c-11.31,4.689-23.3,7.949-35.73,9.569l-0.01-0.06l-3.7-28.07
			c9.95-1.29,19.55-3.89,28.59-7.64L195.96,272.685z"/>
		<path id="bit13" fill="#FFFFFF" d="M160.23,282.215l0.01,0.06c-12.01,1.57-24.42,1.62-37-0.04l3.7-28.13c10.07,1.32,19.99,1.29,29.59,0.04
			L160.23,282.215z"/>
		<path id="bit14" fill="#FFFFFF" d="M126.94,254.104l-3.7,28.13c-12.58-1.659-24.56-4.909-35.75-9.54l0.02-0.05l10.83-26.16v-0.01
			C107.291,250.175,116.871,252.774,126.94,254.104z"/>
		<path id="bit15" fill="#FFFFFF" d="M98.34,246.475v0.01l-10.83,26.16l-0.02,0.05c-11.59-4.779-22.34-11.029-32.05-18.49l0.02-0.02
			l17.25-22.48C80.471,237.664,89.07,242.664,98.34,246.475z"/>
		<path id="bit16" fill="#FFFFFF" d="M72.71,231.704l-17.25,22.48l-0.02,0.02c-9.85-7.569-18.64-16.39-26.15-26.18l0.03-0.03l22.45-17.229
			C57.791,218.604,64.82,225.654,72.71,231.704z"/>
		<path id="bit17" fill="#FFFFFF" d="M51.771,210.765l-22.45,17.229l-0.03,0.03c-7.52-9.79-13.77-20.57-18.53-32.05l0.02-0.011l26.18-10.85
			C40.76,194.304,45.76,202.924,51.771,210.765z"/>
		<path id="bit18"  fill="#FFFFFF" d="M36.96,185.114l-26.18,10.85l-0.02,0.011c-4.69-11.311-7.95-23.311-9.57-35.741l0.06-0.01l28.07-3.689
			C30.61,166.474,33.21,176.074,36.96,185.114z"/>
		<path id="bit19" fill="#FFFFFF" d="M1.23,123.233l28.13,3.7c-1.33,10.07-1.29,20-0.04,29.601l-28.07,3.689l-0.06,0.01
			C-0.379,148.224-0.43,135.813,1.23,123.233z"/>
		<path id="bit20" fill="#FFFFFF" d="M10.82,87.503l26.16,10.841c-3.69,8.95-6.29,18.53-7.62,28.59l-28.13-3.7
			c1.66-12.58,4.91-24.56,9.54-35.75L10.82,87.503z"/>
		<path id="bit21" fill="#FFFFFF" d="M29.28,55.463l22.48,17.24c-5.96,7.771-10.96,16.37-14.78,25.641L10.82,87.503l-0.05-0.02
			c4.77-11.59,11.02-22.33,18.48-32.04L29.28,55.463z"/>
		<path id="bit22" fill="#FFFFFF" d="M72.701,51.763l0.01,0.011c-7.84,6-14.89,13.04-20.95,20.93l-22.48-17.24l-0.03-0.02
			c7.57-9.86,16.39-18.65,26.19-26.171l0.03,0.04L72.701,51.763z"/>
		<path id="bit23" fill="#FFFFFF" d="M87.5,10.783l10.84,26.17c-9.18,3.81-17.8,8.8-25.63,14.82l-0.01-0.011l-17.23-22.45l-0.03-0.04
			c9.79-7.51,20.57-13.76,32.05-18.51L87.5,10.783z"/>
		<path id="bit24" fill="#FFFFFF" d="M123.241,1.243l3.69,28.07c-9.95,1.29-19.55,3.891-28.59,7.641L87.5,10.783l-0.01-0.02
			c11.31-4.7,23.31-7.95,35.74-9.57L123.241,1.243z"/>

	</g>
<path fill="#FFFFFF" d="M114.526,150.372c-16.848,5.004-8.994,30.806,8.229,25.562C139.602,171.039,131.749,145.259,114.526,150.372
	z"/>
<path fill="#FFFFFF" d="M160.012,150.272c-16.855,5.043-9.059,30.679,8.227,25.59C185.064,170.91,177.198,145.13,160.012,150.272z"
	/>
</svg>
