<?xml version="1.0" encoding="utf-8"?>
<!DOCTYPE svg PUBLIC "-//W3C//DTD SVG 1.1//EN" "http://www.w3.org/Graphics/SVG/1.1/DTD/svg11.dtd">
<svg version="1.1" id="Layer_1" xmlns="http://www.w3.org/2000/svg" xmlns:xlink="http://www.w3.org/1999/xlink" x="0px" y="0px"
	 width="512px" height="512px" viewBox="0 0 512 512" enable-background="new 0 0 512 512" xml:space="preserve">
<path fill="#FFFFFF" d="M23.17,17.35c3.41-1.54,7.229-0.96,10.84-1.061c150.01,0.01,300.01,0,450.01,0.01
	c4.32-0.149,8.63,2.341,10.52,6.261c1.711,3.21,1.101,6.95,1.211,10.439c-0.011,150.351,0,300.69-0.011,451.04
	c0.36,6.33-5.39,12.04-11.72,11.681c-151.68,0.01-303.359,0-455.04,0.01c-4.92,0.3-9.939-2.42-11.79-7.1
	c-0.17-1.11-0.54-2.16-1.1-3.12C15.87,379.34,16.06,273.17,16,166.99c0.06-46.83-0.13-93.67,0.09-140.5
	c0.56-0.97,0.92-2.01,1.1-3.12C18.4,20.76,20.39,18.35,23.17,17.35 M59.89,112.9c-8.729,8.6-13.729,20.81-13.56,33.07
	c0,73.359,0,146.72,0,220.09c-0.16,12.01,4.63,24.01,13.08,32.56c8.63,9.05,21.069,14.351,33.58,14.25c56.34,0,112.68,0.01,169.02,0
	c16.91,0.04,33.26-10.21,40.729-25.33c0.98-1.979,1.99-3.96,2.59-6.08c0.601-1.25,0.69-2.64,0.86-3.979
	c1.45-1.75,0.19-4.32,1.61-6.101c0.46-22.79,0.069-45.6,0.2-68.39c0-53.01,0-106.01,0-159.01c-0.04-1.53,0.09-3.16-0.86-4.48
	c-0.23-1.67,0.2-3.569-0.94-4.979c-0.18-1.351-0.25-2.74-0.88-3.98c-0.6-2.13-1.609-4.109-2.56-6.1
	c-7.5-14.72-23.09-25.01-39.72-25.271C206.36,99.1,149.67,99.16,92.99,99.14C80.7,99.03,68.5,104.14,59.89,112.9 M321.78,153.89
	c-0.02,59.489,0,118.989-0.01,178.479c6.41,0,12.82,0,19.23,0c-0.051-59.49,0.1-119-0.07-178.49
	C334.539,154.02,328.15,154.27,321.78,153.89 M355.73,163.18c-0.01,56.399,0,112.8-0.01,169.199c6.42-0.02,12.85,0,19.28-0.01
	c-0.03-56.399-0.03-112.79-0.011-169.18C368.57,163.17,362.15,163.18,355.73,163.18 M389.44,346.15c-22.57-0.01-45.13,0-67.689,0
	c-0.03,6.51,0.029,13.02-0.04,19.54c28.77,0.07,57.529,0,86.29,0.03c-0.021-15.57,0.079-31.131-0.061-46.69
	c0.93-0.58,1.93-0.87,3.01-0.9c18.33,0.03,36.66,0.011,55,0.021c0.07-33.34-0.01-66.69,0.03-100.03
	c-18.79,0.01-37.59-0.04-56.38,0.03c-0.4-0.36-1.2-1.08-1.6-1.44c0.02-9.34,0-18.67,0.01-28.01c-6.19-0.01-12.38,0-18.561-0.01
	C389.44,241.18,389.47,293.66,389.44,346.15z"/>
<g id="_x23_000000ff">
	<path d="M26.65,0h459.36c7.649,0.45,15.02,4.19,19.84,10.16c3.13,3.7,4.81,8.32,6.15,12.91v465.87
		c-2.5,12.34-13.32,22.71-26.171,23.06H26.02c-8.8-0.64-17.18-5.699-21.67-13.319C1.81,494.64,0.72,489.91,0,485.25V26.69
		c0.74-4.65,1.83-9.37,4.39-13.4C8.99,5.51,17.63,0.4,26.65,0 M23.17,17.35c-2.78,1-4.771,3.41-5.98,6.02
		c-0.18,1.11-0.54,2.15-1.1,3.12c-0.22,46.83-0.03,93.67-0.09,140.5c0.06,106.18-0.13,212.35,0.09,318.521
		c0.56,0.96,0.93,2.01,1.1,3.12c1.851,4.68,6.87,7.399,11.79,7.1c151.681-0.01,303.36,0,455.04-0.01
		c6.33,0.359,12.08-5.351,11.72-11.681c0.011-150.35,0-300.689,0.011-451.04c-0.11-3.489,0.5-7.229-1.211-10.439
		c-1.89-3.92-6.199-6.41-10.52-6.261c-150-0.01-300,0-450.01-0.01C30.4,16.39,26.58,15.81,23.17,17.35z"/>
	<path d="M59.89,112.9C68.5,104.14,80.7,99.03,92.99,99.14c56.68,0.02,113.369-0.04,170.05,0.029
		c16.63,0.261,32.22,10.551,39.72,25.271c0.95,1.99,1.96,3.97,2.56,6.1c0.63,1.24,0.7,2.63,0.88,3.98
		c1.141,1.41,0.71,3.31,0.94,4.979c0.95,1.32,0.82,2.95,0.86,4.48c0,53,0,106,0,159.01c-0.131,22.79,0.26,45.6-0.2,68.39
		c-1.42,1.78-0.16,4.351-1.61,6.101c-0.17,1.34-0.26,2.729-0.86,3.979c-0.6,2.12-1.609,4.101-2.59,6.08
		c-7.47,15.12-23.819,25.37-40.729,25.33c-56.34,0.01-112.68,0-169.02,0c-12.511,0.101-24.95-5.2-33.58-14.25
		c-8.45-8.55-13.24-20.55-13.08-32.56c0-73.37,0-146.73,0-220.09C46.16,133.71,51.16,121.5,59.89,112.9 M197.99,149.15
		c-1,5.17-1.19,10.64-0.03,15.8c0.35,1.311,0.68,2.64,1,3.96c0.62,1.68,1.359,3.32,2.069,4.96c5,9.69,14.4,16.95,25.101,19.13
		c4.84,0.99,9.92,1.011,14.77,0.021c1.311-0.36,2.65-0.69,3.971-1.01c1.68-0.641,3.33-1.341,4.979-2.051
		c7.53-3.88,13.76-10.3,17.16-18.08c0.8-1.96,1.49-3.949,2.02-5.989c1.25-6.841,1.32-14.16-1.06-20.78
		c-4.65-13.39-17.75-23.68-32.06-24.04c-1.601-0.33-3.24-0.45-4.811,0.02C215.39,121.5,201.31,133.95,197.99,149.15 M130.11,252.01
		c-0.989,0.359-1.989,0.71-2.979,1.069c-15.13,5.86-27.87,17.58-35.11,32.08c-1.1,2.271-2.12,4.58-2.95,6.96
		c-0.359,1.01-0.71,2.03-1.06,3.05c-0.35,1.301-0.68,2.601-1.03,3.9c-0.41,1.66-0.67,3.36-0.939,5.05c-1.15,6.82-1.15,13.92,0,20.74
		c0.26,1.689,0.54,3.39,0.939,5.06c0.58,2.341,1.28,4.65,2.09,6.94c0.851,2.38,1.87,4.689,2.98,6.97
		c6.93,13.78,18.78,25.13,33.02,31.15c1.681,0.689,3.351,1.399,5.091,1.95c2.59,0.869,5.229,1.59,7.92,2.08
		c2.3,0.579,4.68,0.72,7.04,0.92c3.88,0.64,7.89,0.64,11.76-0.051c2.36-0.149,4.75-0.27,7.05-0.88c2.69-0.479,5.32-1.2,7.91-2.069
		c1.729-0.561,3.41-1.261,5.09-1.95c16.54-7.021,29.94-21.181,35.99-38.11c0.359-1.02,0.71-2.04,1.06-3.06
		c0.351-1.3,0.681-2.601,1.05-3.891c0.391-1.659,0.66-3.359,0.931-5.05c1.149-6.82,1.17-13.939,0-20.76
		c-0.26-1.7-0.521-3.39-0.94-5.05c-0.359-1.3-0.68-2.61-1.02-3.91c-0.36-1.021-0.71-2.03-1.07-3.04c-0.83-2.38-1.82-4.71-2.96-6.96
		c-0.26-0.521-0.78-1.55-1.04-2.061c-7.45-13.529-19.64-24.439-34.07-30.029c-0.989-0.34-1.97-0.681-2.96-1.011
		C158.45,247.49,143.57,247.54,130.11,252.01z"/>
	<path d="M222.06,140.11c7.101-4.97,17.28-4.61,24.09,0.729c4.32,3.07,6.65,8.061,8.061,13.03c1.18,8.37-2.94,16.83-10.04,21.33
		c-1.061,0.45-2.11,0.92-3.15,1.41c-5.18,1.97-11.06,1.55-16.18-0.42c-4.95-2.58-8.91-6.86-10.95-12.07
		c-0.74-3.05-1.35-6.14-1.13-9.28C213.98,149.04,216.9,143.33,222.06,140.11z"/>
	<path d="M321.78,153.89c6.37,0.38,12.76,0.13,19.15-0.011c0.17,59.49,0.02,119,0.07,178.49c-6.41,0-12.82,0-19.23,0
		C321.78,272.88,321.76,213.38,321.78,153.89z"/>
	<path d="M355.73,163.18c6.42,0,12.84-0.011,19.26,0.01c-0.02,56.39-0.02,112.78,0.011,169.18c-6.431,0.01-12.86-0.01-19.28,0.01
		C355.73,275.98,355.72,219.58,355.73,163.18z"/>
	<path d="M389.44,346.15c0.03-52.49,0-104.97,0.01-157.46c6.181,0.01,12.37,0,18.561,0.01c-0.01,9.34,0.01,18.67-0.01,28.01
		c0.399,0.36,1.199,1.08,1.6,1.44c18.79-0.07,37.59-0.021,56.38-0.03c-0.04,33.34,0.04,66.69-0.03,100.03
		c-18.34-0.01-36.67,0.01-55-0.021c-1.08,0.03-2.08,0.32-3.01,0.9c0.14,15.56,0.04,31.12,0.061,46.69
		c-28.761-0.03-57.521,0.04-86.29-0.03c0.069-6.521,0.01-13.03,0.04-19.54C344.31,346.15,366.869,346.14,389.44,346.15z"/>
	<path d="M136.85,270.9c2.98-0.86,6.061-1.3,9.07-2.05c6.47-0.601,12.95,0.3,19.18,2.09c14.49,4.859,26.12,17.149,29.95,31.97
		c0.3,1.67,0.64,3.34,1.1,4.98c0.65,7.159,0.141,14.39-2.12,21.239c-3.93,10.67-11.579,20.07-21.77,25.271
		c-11.97,6.59-26.89,6.97-39.41,1.7c-12.6-5.471-22.28-16.75-25.95-29.971c-1.699-6.27-1.609-12.84-1.05-19.26
		c0.771-2.649,1.351-5.34,2.13-7.979c4.23-11.33,12.92-20.83,23.851-25.99C133.52,272.27,135.19,271.6,136.85,270.9z"/>
</g>
</svg>
