<?xml version="1.0" encoding="utf-8"?>
<!-- Generator: Adobe Illustrator 16.0.4, SVG Export Plug-In . SVG Version: 6.00 Build 0)  -->
<!DOCTYPE svg PUBLIC "-//W3C//DTD SVG 1.1//EN" "http://www.w3.org/Graphics/SVG/1.1/DTD/svg11.dtd">
<svg version="1.1" id="Layer_1" xmlns="http://www.w3.org/2000/svg" xmlns:xlink="http://www.w3.org/1999/xlink" x="0px" y="0px"
	 width="368.5px" height="368.5px" viewBox="0 0 368.5 368.5" enable-background="new 0 0 368.5 368.5" xml:space="preserve">
<g>
	<path fill="#010101" d="M123.804,2.245C88.327,6.96,46.482-5.775,19.177,23.715C-5.54,50.409,4.519,79.643,6.728,111.888
		c1.092,15.951,3.831,32.955,3.523,48.895c-0.268,13.885-4.58,27.279-5.916,41.037c-1.659,17.07-0.148,34.332-0.148,51.514
		c0,31.283-0.599,59.408,22.736,83.82c16.319,17.074,37.125,28.604,61.084,29.652c12.055,0.527,23.819-2.027,35.798-2.551
		c17.84-0.781,35.535,3.721,53.26,2.506c16.236-1.111,31.776-7.059,48.021-7.744c22.9-0.967,43.859,9.383,67.23,5.693
		c42.398-6.689,74.367-47.232,73.33-89.549c-0.452-18.477-8.967-35.715-9.554-54.133c-0.453-14.205,4.582-28.662,5.926-42.783
		c1.005-10.556-1.104-20.947-1.563-31.433c-1.156-26.413,8.836-53.988-4.673-78.581c-4.646-8.462-11.283-15.081-18.063-21.827
		C318.527,27.306,288.29,0.559,259.138,2.057c-19.787,1.017-37.147,15.04-56.753,14.548c-13.294-0.334-25.947-7.356-38.417-11.216
		C151.372,1.49,136.896,0.505,123.804,2.245z"/>
	<path fill="#FFFFFF" d="M134.281,26.364c-11.484,1.453-23.353,4.571-34.925,4.854c-24.223,0.593-45.251-6.865-63.577,13.982
		c-17.408,19.805-4.526,46.59-4.526,69.85c0,17.057,6.699,34.667,5.09,51.514c-1.448,15.166-7.855,29.328-9.308,44.53
		c-1.254,13.126,2.413,26.227,1.52,39.29c-1.96,28.653-2.812,53.258,19.29,75.076c27.29,26.939,56.348,15.332,89.929,15.732
		c15.723,0.187,30.384,5.334,46.276,2.543c13.279-2.333,25.725-9.772,39.29-10.37c21.427-0.945,40.123,13.476,61.991,10.06
		c23.097-3.608,44.508-21.487,52.888-43.272c10.677-27.766-7.318-47.561-9.153-74.216c-1.097-15.947,7.859-30.587,9.378-46.275
		c1.646-17.014-4.434-33.599-3.266-50.642c1.102-16.077,7.123-30.986-1.225-46.275c-3.497-6.405-8.398-12.387-13.7-17.384
		c-16.521-15.576-44.634-44-69.847-34.925c-16.045,5.775-27.781,29.919-46.275,27.699c-9.872-1.185-18.679-10.619-26.193-16.417
		C165.908,32.435,149.99,24.375,134.281,26.364z"/>
	<path fill="#010101" d="M259.138,46.606c-23.57,1.361-20.939,37.794,2.619,35.978C284.846,80.804,282.219,45.273,259.138,46.606
		 M61.812,48.352c-23.571,1.361-20.94,37.794,2.619,35.978C87.52,82.55,84.894,47.02,61.812,48.352 M132.535,53.464
		c-6.101,1.098-11.85,3.553-16.576,7.581c-8.037,6.849-14.418,15.278-15.578,26.066c-2.632,24.492,21.546,45.355,45.25,40.631
		c5.595-1.114,10.479-3.923,14.83-7.536c8.818-7.319,15.047-17.033,15.333-28.73C176.325,69.694,154.294,49.548,132.535,53.464z"/>
	<path fill="#FFFFFF" d="M136.901,75.42c-20.186,1.25-17.498,32.494,2.619,30.735C159.183,104.436,156.49,74.208,136.901,75.42z"/>
	<path fill="#010101" d="M301.048,79.786c-23.571,1.36-20.939,37.793,2.619,35.977C326.755,113.982,324.128,78.453,301.048,79.786
		 M229.451,101.487c-22.537,4.056-38.104,28.453-29.938,50.235c4.407,11.758,15.589,18.173,24.7,25.836
		c17.312,14.559,31.92,38.253,57.626,33.131c20.864-4.156,35.278-28.427,28.202-48.49c-4.221-11.966-14.548-18.405-23.837-26.125
		C269.799,122.44,253.864,97.093,229.451,101.487 M67.924,110.345c-23.571,1.36-20.939,37.793,2.619,35.977
		C93.631,144.542,91.005,109.012,67.924,110.345z"/>
	<path fill="#FFFFFF" d="M233.817,123.441c-20.186,1.25-17.497,32.495,2.619,30.735
		C256.099,152.457,253.406,122.229,233.817,123.441z"/>
	<path fill="#010101" d="M136.028,158.24c-10.731,1.931-19.709,8.995-29.686,13.037c-21.463,8.695-46.834,8.598-51.982,37.199
		c-2.657,14.76,8.639,26.509,7.303,41.036c-0.803,8.738-5.335,16.009-7.125,24.447c-2.936,13.847,3.919,26.709,14.259,35.536
		c10.684,9.12,26.816,11.496,39.291,4.477c8.702-4.899,14.343-12.947,25.32-12.282c9.497,0.576,14.233,7.063,21.828,11.622
		c7.582,4.549,16.744,5.608,25.321,3.899c13.407-2.673,26.61-15.873,29.281-29.281c1.607-8.066,0.217-16.266,1.393-24.447
		c2.082-14.477,10.545-27.876,7.292-42.783c-3.182-14.584-15.649-21.887-26.615-30.257
		C175.364,177.812,159.593,153.998,136.028,158.24z"/>
	<path fill="#FFFFFF" d="M273.107,158.366c-20.186,1.25-17.497,32.495,2.619,30.735C295.39,187.383,292.696,157.154,273.107,158.366
		 M140.394,180.195c-20.186,1.25-17.498,32.495,2.619,30.735C162.675,209.211,159.983,178.982,140.394,180.195 M90.625,198.53
		c-20.186,1.251-17.498,32.494,2.619,30.734C112.908,227.546,110.215,197.317,90.625,198.53 M180.557,213.373
		c-20.186,1.251-17.498,32.495,2.62,30.735C202.839,242.389,200.146,212.16,180.557,213.373 M131.662,231.709
		c-20.186,1.25-17.498,32.494,2.619,30.734C153.944,260.725,151.251,230.496,131.662,231.709z"/>
	<path fill="#010101" d="M272.234,242.06c-6.102,1.098-11.85,3.553-16.575,7.58c-8.037,6.849-14.42,15.277-15.578,26.066
		c-2.632,24.492,21.547,45.355,45.25,40.631c5.595-1.114,10.479-3.923,14.83-7.535c8.817-7.319,15.047-17.033,15.332-28.73
		C316.023,258.288,293.993,238.143,272.234,242.06z"/>
	<path fill="#FFFFFF" d="M276.601,264.015c-20.187,1.25-17.498,32.494,2.619,30.734C298.882,293.03,296.189,262.802,276.601,264.015
		 M90.625,264.888c-20.186,1.25-17.498,32.494,2.619,30.734C112.908,293.903,110.215,263.675,90.625,264.888 M171.826,264.888
		c-20.186,1.25-17.498,32.494,2.62,30.734C194.107,293.903,191.415,263.675,171.826,264.888z"/>
</g>
</svg>
